<svg id="Capa_1" data-name="Capa 1" xmlns="http://www.w3.org/2000/svg" viewBox="0 0 1366 768"><defs><style>.cls-1,.cls-2{fill:none;stroke:#fc0;}.cls-1,.cls-2,.cls-4{stroke-miterlimit:10;}.cls-1{stroke-width:78px;}.cls-2{stroke-width:64px;}.cls-3{opacity:0.15;}.cls-4{stroke:#000;stroke-width:5px;}</style></defs><circle class="cls-1" cx="87.5" cy="256.5" r="267.5"/><circle class="cls-2" cx="1380.5" cy="712.5" r="226.5"/><g class="cls-3"><path class="cls-4" d="M197.05,222.37c0,.52-.27.74-.94.64a3.24,3.24,0,0,1-2-1.53,16.09,16.09,0,0,1-1.57-4.33c-.26-1.36-.62-3.4-1.08-6.14q-.33-4.56-.77-11.95t-.89-16.62q-.44-9.24-.81-19.35c.06-3.53,0-6.77-.07-9.7s-.26-6.23-.47-9.9c-.05-.25-.19-.11-.43.42a13.49,13.49,0,0,0-.62,1.77,2.56,2.56,0,0,0-.09,1.47c-.5,1.86-.94,3.58-1.31,5.14a22.7,22.7,0,0,0-1.15,5.51,69.55,69.55,0,0,1-1.38,7.67c-.46,2.74-.94,5.67-1.44,8.81s-1,5.76-1.43,7.87q-.48,1.82-.87,4.14c-.25,1.54-.4,2.54-.43,3a22,22,0,0,1-.6,3.62q-.51,2.15-1.2,4.26c-.21.83-.42,1.69-.62,2.56s-.4,1.91-.6,3.09a9.84,9.84,0,0,1-.4,2.46c-.32,1.39-.73,2.92-1.23,4.6s-1,3.15-1.51,4.39q-2.21,5.31-3.9,6.5t-4.6-1.43a15.92,15.92,0,0,1-2.57-4.34,30.3,30.3,0,0,1-1.7-6.42c-.43-2.6-.85-5.89-1.24-9.87q-.24-4.59-.57-9.22c-.23-3.08-.43-6-.62-8.74s-.33-5.07-.42-7a34.23,34.23,0,0,1-.05-3.82c-.2-1.73-.41-2.66-.62-2.79s-.47.44-.77,1.73c-.13.64-.47,2.23-1,4.76s-1.18,5.62-1.86,9.28-1.28,7.61-1.82,11.85q-1.77,10.4-2.92,17.15t-1.8,10.73c-.45,2.64-.76,4.59-.95,5.87s-.32,2.13-.42,2.59a5.61,5.61,0,0,1-.27,1,2.36,2.36,0,0,1-1.82-.65,23.34,23.34,0,0,1-2.16-1.9,5.56,5.56,0,0,1-.57-1.74,12.52,12.52,0,0,1,.08-2.72c.13-1.22.33-3.09.58-5.6.35-2.36.68-4.43,1-6.21a10.64,10.64,0,0,1,.93-3.29c.17-.74.3-1.47.41-2.19a9.62,9.62,0,0,0,0-2.51,31.29,31.29,0,0,0,.77-3.39q.48-2.53.92-5.53c.26-1.2.59-2.76,1-4.69s.8-4,1.21-6.38.76-4.53,1-6.61q2.15-10.84,3.66-18.35t2.56-9.68a10.9,10.9,0,0,0,.59-2,5.47,5.47,0,0,0,.09-2.14,15.79,15.79,0,0,1-.19-5c.22-1.58.61-2.34,1.18-2.28a5.09,5.09,0,0,1,1.64-.05,3.58,3.58,0,0,1,1.83,1.37,32.36,32.36,0,0,1,1.83,2.83q.82,1.42,1.08,6.13a33.28,33.28,0,0,1,.5,4.07l.3,4.18c.09,1.26.17,2.24.24,2.93-.13,3.46-.13,7.32,0,11.56s.35,8.53.62,12.84.58,8.31.92,12,.69,6.7,1,9.06a14,14,0,0,0,.91,4c.48.26.84.23,1.09-.08a12.53,12.53,0,0,0,.87-3.6c.21-1.1.55-2.47,1-4.1s.91-3.15,1.37-4.56q.38-1.92,1.2-5.78l2.09-9.92q1.28-6.06,3-14.8t4-20.26q1.19-4.86,2.18-9.48a23.14,23.14,0,0,1,1.91-6.12c.62-1.26,1.42-1.7,2.41-1.32a6.9,6.9,0,0,1,3,2.93,18.71,18.71,0,0,1,2.33,6.16,43.75,43.75,0,0,1,.79,5.8q.36,4,.53,9.22c.11,3.47.09,7.06-.05,10.79.1,1.48.16,3.34.2,5.58s0,4.56,0,6.94-.09,4.65-.17,6.78q.36,4.29.57,8.48a26.2,26.2,0,0,0,.65,5.57,21.28,21.28,0,0,0,.06,6.07c.31,2.58.73,5.24,1.25,8q.6,5.05.81,7.12c.14,1.38.06,2.06-.25,2C197.25,221.32,196.9,221.61,197.05,222.37Z"/><path class="cls-4" d="M216.37,207.56a4.58,4.58,0,0,0-1.2-1.42,1.69,1.69,0,0,1-.73-1c-.07-.34-.15-.7-.26-1.08a2.2,2.2,0,0,0-.6-1c-.4-.45-.59-1.62-.59-3.52a70.87,70.87,0,0,1,.48-7.1q.48-4.26,1.3-9a15.77,15.77,0,0,0,.91-2.95,14.55,14.55,0,0,1,.65-2.37,1.83,1.83,0,0,1,.08-1,.79.79,0,0,1,.53-.57l-.14-.76a5.65,5.65,0,0,1,.43-2.33c.36-1.13.84-2.39,1.43-3.78s1.22-2.75,1.89-4.07a19.3,19.3,0,0,1,1.74-2.91,7.82,7.82,0,0,1,3.44-2.9,3.46,3.46,0,0,1,3.66.62l1.13,1.1c.53.52,1.14,1.08,1.84,1.7l2.16,1.9,4.09,3.58-.37,6.68a24.87,24.87,0,0,0,1.13,9,28.9,28.9,0,0,0,3,6.3A6.33,6.33,0,0,0,244.7,193a5.73,5.73,0,0,0,2.91,1,2.48,2.48,0,0,1,1.48.51,2.94,2.94,0,0,1,1,1.92,5.22,5.22,0,0,1,0,2.11,1.88,1.88,0,0,1-1,1.26,6.12,6.12,0,0,1-5.85-1q-3-2.06-6.26-7.52a22,22,0,0,1-1.49-2.69c-.65-1.33-1.05-2.2-1.19-2.62-.15.47-.44,1.34-.88,2.62s-.77,2.19-1,2.77q-4.53,10.4-8.5,14.39T216.37,207.56Zm3.72-8.18a14.84,14.84,0,0,0,3.45-4.3q2.29-4.28,4.51-9.32a66.74,66.74,0,0,0,3.33-9.24l1.07-5a10.81,10.81,0,0,0-2.67-3.65,2.79,2.79,0,0,0-1.94-.76q-1.16.22-2.83,3.72a58.16,58.16,0,0,0-3.27,9.09A116.77,116.77,0,0,0,219,192.11c-.27,1.82-.54,4.39-.83,7.7C218.31,200.41,218.94,200.26,220.09,199.38Z"/><path class="cls-4" d="M268.87,201.34a4.29,4.29,0,0,1-2.28-1.09,13.32,13.32,0,0,1-2.31-2.46,13.18,13.18,0,0,1-1.57-2.68,2.86,2.86,0,0,0-.64-.93c-.28-.21-.63-1.31-1-3.31s-.77-4.23-1.07-6.73-.46-4.5-.5-6,.12-3.35.27-5.8.24-4.65.3-6.6l1-7.86-3.81-.72a2.09,2.09,0,0,1-1.22-.83,3,3,0,0,1-.64-1.2,5.5,5.5,0,0,1,.32-2.64c.34-1.08.63-1.64.87-1.69a7.08,7.08,0,0,0,1.67-.18c.79-.16,1.57-.35,2.32-.58a6,6,0,0,0,1.37-.53,3.62,3.62,0,0,0,.58-.84,3.26,3.26,0,0,0,.27-1.44q.18-1.49.3-2.76a28.63,28.63,0,0,1,.45-2.93q.3-1.78.48-3c.12-.82.35-2,.68-3.44.18-.65.36-1.44.56-2.35a7.72,7.72,0,0,1,.91-2.43,2,2,0,0,1,1.46-1.27c.57-.06,1.4.37,2.5,1.31a6.55,6.55,0,0,1,1.17,1.76,5.89,5.89,0,0,1-.25,2.56c-.2,1.53-.46,3.08-.81,4.65s-.64,3.12-.9,4.66c-.58,2.06-.56,3.15.08,3.3s2.27-.35,4.87-1.47c1.63-.75,2.9-.88,3.79-.39a4.44,4.44,0,0,1,1.93,2.87c.56,2,.65,3.27.26,3.78s-1.71,1-4,1.42a19.71,19.71,0,0,1-3.52,1.27c-1,.24-1.73.4-2.21.49-.75.23-1.25.37-1.48.42a3.43,3.43,0,0,0-1,.46,1.84,1.84,0,0,0-.86,1,12.52,12.52,0,0,0-.36,1.72,14.3,14.3,0,0,0-.55,2.88c-.19,1.54-.48,3.23-.87,5.06q-.21,5.59-.09,11.06c.09,3.64.27,7.16.55,10.54a11.06,11.06,0,0,0,.94,4.38,2.56,2.56,0,0,0,2.58,1,16.33,16.33,0,0,0,3.14-.67,12.07,12.07,0,0,0,3.28-1.36c.57-.54,1.16-1.12,1.78-1.73a17.69,17.69,0,0,0,1.67-1.84c.45-.52,1.12-1.35,2-2.5.16-.73.45-1,.85-.82a3.46,3.46,0,0,1,1.25,1.74,12.58,12.58,0,0,1,.17,3.28q-.13,1.74-2.52,4.58-3.32,4.33-6.5,5.67A12.17,12.17,0,0,1,268.87,201.34Z"/><path class="cls-4" d="M297.35,138.89a6.7,6.7,0,0,1-1.15-1.7,12,12,0,0,1-.88-2.21c-.2-.71-.21-1.08,0-1.12.45-.17.88-1,1.27-2.49a6.8,6.8,0,0,0,.11-3.72,1.93,1.93,0,0,1,.08-1,1.31,1.31,0,0,1,.51-.69,1.56,1.56,0,0,1,2-.72,6.46,6.46,0,0,1,2.43,2.38,7.82,7.82,0,0,1,1.21,3.93,17.85,17.85,0,0,1-1.1,4.77c-.56,1.88-1.2,3-1.91,3.28S298.36,139.67,297.35,138.89Zm1.32,53.43a6.94,6.94,0,0,1-1.5-2.36,11.48,11.48,0,0,1-.81-3,9.89,9.89,0,0,1-.05-2.64,4.53,4.53,0,0,1-.08-1.64,2,2,0,0,0-.08-1.11,5.92,5.92,0,0,1-.16-1.82c0-.88,0-1.72.07-2.52.15-1.44.28-3.16.39-5.17s.18-4,.24-5.93.1-3.63.14-5.05,0-2.3,0-2.65a1.47,1.47,0,0,1,1.1-1.93c.64-.47,1.17-.6,1.58-.37a8.15,8.15,0,0,1,1.9,2.21,4.84,4.84,0,0,1,1.12,3,25.14,25.14,0,0,1-.18,5.33c-.1.72-.2,1.75-.28,3.09a26.48,26.48,0,0,0,0,3.57q-.17,1.09-.3,3c-.09,1.3-.14,2.52-.17,3.67q0,.68,0,1.92c0,.83.06,1.71.05,2.64a11.75,11.75,0,0,1-.26,2.49q.21,5.39-.29,6.4C300.81,194.11,300,193.74,298.67,192.32Z"/></g></svg>