<svg id="Capa_1" data-name="Capa 1" xmlns="http://www.w3.org/2000/svg" xmlns:xlink="http://www.w3.org/1999/xlink" viewBox="0 0 1366 988">
  <defs>
    <style>
      .cls-1, .cls-3 {
        fill: none;
      }

      .cls-2 {
        clip-path: url(#clip-path);
      }

      .cls-3 {
        stroke: #fc0;
        stroke-miterlimit: 10;
        stroke-width: 64px;
      }

      .cls-4 {
        clip-path: url(#clip-path-2);
      }

      .cls-5 {
        fill: #fc0;
      }
    </style>
    <clipPath id="clip-path">
      <rect class="cls-1" x="1173" y="432" width="192.26" height="555.66"/>
    </clipPath>
    <clipPath id="clip-path-2">
      <rect class="cls-1" x="1" y="-11" width="509" height="595.38"/>
    </clipPath>
  </defs>
  <g class="cls-2">
    <ellipse class="cls-3" cx="1405.93" cy="723.37" rx="203.35" ry="194.25"/>
  </g>
  <g class="cls-4">
    <path class="cls-5" d="M481.45,326.55c50.42,115.89-36.81,106.84-129.71,145-71.4,29.29-89.16,58.74-158.23,94.24-55.11,28.33-206-43.64-262.14-84.05-49.39-35.54,9.38-36.22-7.88-89C-108.25,295.64-103.15,155.09,12.92,97c100.3-50.19,261.94-56.24,333.86,25.79,28.36,32.34,5.47,105.47,42.08,134.86S476.69,296.29,481.45,326.55Z"/>
  </g>
</svg>
